<?xml version="1.0" encoding="utf-8"?>
<svg version="1.1" id="Default" xmlns="http://www.w3.org/2000/svg" xmlns:xlink="http://www.w3.org/1999/xlink" x="0px" y="0px" width="85px" height="74px"
	 viewBox="0 0 85 73.4" style="enable-background:new 0 0 85 73.4;" xml:space="preserve">
<path d="M42.5,73.4C62,61.1,72.3,50.5,78.9,41.6c2-2.7,3.7-5.2,4.8-8.9c0.7-2.4,1.2-5.2,1.2-8.1c0.1-4.3-0.9-8.6-3-12.4
	c-2-3.6-5.1-6.6-8.7-8.8c-2.6-1.6-5.5-2.7-8.5-3.1c-2.5-0.4-5-0.4-7.1-0.1c-1.6,0.2-2.9,0.6-4.4,1.1c-3.1,1.1-6.9,2.8-10.8,7.5
	c-3.9-4.7-7.7-6.4-10.8-7.5c-1.5-0.5-2.8-0.9-4.4-1.1c-2.1-0.3-4.6-0.3-7.1,0.1c-3,0.5-5.9,1.6-8.5,3.1C8.2,5.6,5.1,8.6,3,12.2
	C0.9,15.9,0,20.3,0,24.5c0,2.9,0.5,5.7,1.2,8.1C2.4,36.3,4,38.9,6,41.6C12.7,50.5,23,61.1,42.5,73.4z"/>
</svg>
