<?xml version="1.0" encoding="utf-8"?>
<!-- Generator: Adobe Illustrator 18.0.0, SVG Export Plug-In . SVG Version: 6.00 Build 0)  -->
<!DOCTYPE svg PUBLIC "-//W3C//DTD SVG 1.1//EN" "http://www.w3.org/Graphics/SVG/1.1/DTD/svg11.dtd">
<svg version="1.1" id="Layer_1" xmlns="http://www.w3.org/2000/svg" xmlns:xlink="http://www.w3.org/1999/xlink" x="0px" y="0px"
	 viewBox="0 0 85 85" enable-background="new 0 0 85 85" xml:space="preserve">
<polygon points="105.8,64.3 105.8,50.2 7.7,49.6 7.6,63.8 7.6,63.8 "/>
<path d="M75.1,10.6c4.1,2.4,8.2,4.7,12.3,7.1c-6.3,11-18,17.7-30.7,17.7S32.4,28.7,26,17.7c4.1-2.4,8.2-4.7,12.3-7.1
	c3.8,6.6,10.8,10.6,18.4,10.6S71.3,17.2,75.1,10.6z"/>
<polyline fill="none" stroke="#000000" stroke-linecap="round" stroke-linejoin="round" points="105.7,63.8 105.8,63.8 105.7,63.8 
	"/>
<path d="M75.1,102.8c4.1-2.4,8.2-4.7,12.3-7.1c-6.3-11-18-17.7-30.7-17.7S32.4,84.7,26,95.7c4.1,2.4,8.2,4.7,12.3,7.1
	c3.8-6.6,10.8-10.6,18.4-10.6S71.3,96.2,75.1,102.8z"/>
</svg>
