<?xml version="1.0" encoding="utf-8"?>
<!-- Generator: Adobe Illustrator 18.0.0, SVG Export Plug-In . SVG Version: 6.00 Build 0)  -->
<!DOCTYPE svg PUBLIC "-//W3C//DTD SVG 1.1//EN" "http://www.w3.org/Graphics/SVG/1.1/DTD/svg11.dtd">
<svg version="1.1" id="Layer_1" xmlns="http://www.w3.org/2000/svg" xmlns:xlink="http://www.w3.org/1999/xlink" x="0px" y="0px"
	 viewBox="0 0 85 85" enable-background="new 0 0 85 85" xml:space="preserve">
<path d="M84.9,19.8c0,5.7,0,11.4,0,17.1c-12.8,0-25,5.1-34,14.2c-9,9.1-14.1,21.4-14.1,34.2c-5.7,0-11.3,0-17,0
	c0-17.4,6.9-34,19.1-46.3C51.1,26.7,67.6,19.8,84.9,19.8z"/>
<path d="M19.8-0.1c5.7,0,11.3,0,17,0c0,20.4-16.5,37-36.8,37c0-5.7,0-11.4,0-17.1C11,19.8,19.8,10.9,19.8-0.1z"/>
</svg>
