<?xml version="1.0" encoding="utf-8"?>
<!-- Generator: Adobe Illustrator 18.0.0, SVG Export Plug-In . SVG Version: 6.00 Build 0)  -->
<!DOCTYPE svg PUBLIC "-//W3C//DTD SVG 1.1//EN" "http://www.w3.org/Graphics/SVG/1.1/DTD/svg11.dtd">
<svg version="1.1" id="Layer_1" xmlns="http://www.w3.org/2000/svg" xmlns:xlink="http://www.w3.org/1999/xlink" x="0px" y="0px"
	 viewBox="0 0 85 85" enable-background="new 0 0 85 85" xml:space="preserve">
<path fill="#030405" d="M48.2,85c5.7,0,11.3,0,17,0c0-17.3-6.9-33.9-19.1-46.1C33.9,26.7,17.3,19.8,0,19.8c0,5.7,0,11.3,0,17
	c12.8,0,25,5.1,34.1,14.1C43.1,60,48.2,72.3,48.2,85z"/>
<path fill="#030405" d="M65.2,0c-5.7,0-11.3,0-17,0c0,20.4,16.5,36.9,36.9,36.9c0-5.7,0-11.3,0-17C74.1,19.8,65.2,11,65.2,0z"/>
</svg>
