<?xml version="1.0" encoding="utf-8"?>
<!-- Generator: Adobe Illustrator 18.0.0, SVG Export Plug-In . SVG Version: 6.00 Build 0)  -->
<!DOCTYPE svg PUBLIC "-//W3C//DTD SVG 1.1//EN" "http://www.w3.org/Graphics/SVG/1.1/DTD/svg11.dtd">
<svg version="1.1" id="Layer_1" xmlns="http://www.w3.org/2000/svg" xmlns:xlink="http://www.w3.org/1999/xlink" x="0px" y="0px"
	 viewBox="0 0 85 85" enable-background="new 0 0 85 85" xml:space="preserve">
<path fill="#030405" d="M85,48.1c-9.4,0-18.9,0-28.3,0c-20.4,0-36.9,16.5-36.9,36.9c5.7,0,11.3,0,17,0c0-10.9,8.8-19.8,19.8-19.8
	c9.4,0,18.9,0,28.3,0C84.9,59.5,84.9,53.9,85,48.1z"/>
<path fill="#030405" d="M0,19.8c9.4,0,18.9,0,28.3,0C39.2,19.8,48.1,11,48.1,0c5.7,0,11.3,0,17,0c0,20.4-16.5,36.9-36.9,36.9
	c-9.4,0-18.9,0-28.3,0C-0.1,31.2-0.1,25.5,0,19.8z"/>
</svg>
