<?xml version="1.0" encoding="utf-8"?>
<!-- Generator: Adobe Illustrator 18.0.0, SVG Export Plug-In . SVG Version: 6.00 Build 0)  -->
<!DOCTYPE svg PUBLIC "-//W3C//DTD SVG 1.1//EN" "http://www.w3.org/Graphics/SVG/1.1/DTD/svg11.dtd">
<svg version="1.1" id="Layer_1" xmlns="http://www.w3.org/2000/svg" xmlns:xlink="http://www.w3.org/1999/xlink" x="0px" y="0px"
	 viewBox="0 0 85 85" enable-background="new 0 0 85 85" xml:space="preserve">
<path d="M26,17.7c4.1-2.4,8.2-4.7,12.3-7.1c6.3,11,6.3,24.5,0,35.4C32,57,20.3,63.8,7.6,63.8c0-4.7,0-9.4,0-14.2
	c7.6,0,14.6-4.1,18.4-10.6C29.8,32.4,29.8,24.3,26,17.7z"/>
<polygon points="37.8,102.5 25.5,95.4 75.1,10.6 75.1,10.6 87.4,17.8 "/>
<path d="M105.8,63.8c0-4.7,0-9.4,0-14.2c-12.7,0-24.4,6.8-30.7,17.7s-6.3,24.5,0,35.4c4.1-2.4,8.2-4.7,12.3-7.1
	c-3.8-6.6-3.8-14.7,0-21.3C91.2,67.8,98.2,63.8,105.8,63.8z"/>
<polyline fill="none" stroke="#000000" stroke-linecap="round" stroke-linejoin="round" points="26,95.6 26,95.7 26,95.6 "/>
</svg>
