<?xml version="1.0" encoding="utf-8"?>
<!-- Generator: Adobe Illustrator 18.0.0, SVG Export Plug-In . SVG Version: 6.00 Build 0)  -->
<!DOCTYPE svg PUBLIC "-//W3C//DTD SVG 1.1//EN" "http://www.w3.org/Graphics/SVG/1.1/DTD/svg11.dtd">
<svg version="1.1" id="Layer_1" xmlns="http://www.w3.org/2000/svg" xmlns:xlink="http://www.w3.org/1999/xlink" x="0px" y="0px"
	 viewBox="0 0 85 85" enable-background="new 0 0 85 85" xml:space="preserve">
<path fill="#232322" d="M48.2,85c0-11-8.9-19.8-19.8-19.8c-9.4,0-18.9,0-28.3,0c0-5.7,0-11.3,0-17c9.4,0,18.9,0,28.3,0
	c20.4,0,36.9,16.5,36.9,36.9"/>
<path fill="#232322" d="M85,36.9c-9.4,0-18.9,0-28.3,0C36.3,36.9,19.8,20.4,19.8,0c5.7,0,11.3,0,17,0c0,11,8.9,19.8,19.8,19.8
	c9.4,0,18.9,0,28.3,0C85,25.5,85,31.2,85,36.9z"/>
</svg>
