<?xml version="1.0" encoding="utf-8"?>
<!-- Generator: Adobe Illustrator 18.0.0, SVG Export Plug-In . SVG Version: 6.00 Build 0)  -->
<!DOCTYPE svg PUBLIC "-//W3C//DTD SVG 1.1//EN" "http://www.w3.org/Graphics/SVG/1.1/DTD/svg11.dtd">
<svg version="1.1" id="Layer_1" xmlns="http://www.w3.org/2000/svg" xmlns:xlink="http://www.w3.org/1999/xlink" x="0px" y="0px"
	 viewBox="0 0 85 85" enable-background="new 0 0 85 85" xml:space="preserve">
<path d="M105.8,63.8c0-4.7,0-9.4,0-14.2c-12.7,0-24.4,6.8-30.7,17.7c-6.3,11-6.3,24.5,0,35.4c4.1-2.4,8.2-4.7,12.3-7.1
	c-3.8-6.6-3.8-14.7,0-21.3S98.2,63.8,105.8,63.8z"/>
<path d="M75.1,10.6c4.1,2.4,8.2,4.7,12.3,7.1c-6.3,11-18,17.7-30.7,17.7C44,35.4,32.3,28.7,26,17.7c4.1-2.4,8.2-4.7,12.3-7.1
	c3.8,6.6,10.8,10.6,18.4,10.6C64.3,21.3,71.3,17.2,75.1,10.6z"/>
<path d="M26,95.7c4.1,2.4,8.2,4.7,12.3,7.1c6.3-11,6.3-24.5,0-35.4c-6.3-11-18-17.7-30.7-17.7c0,4.7,0,9.4,0,14.2
	c7.6,0,14.6,4.1,18.4,10.6C29.8,81,29.8,89.1,26,95.7z"/>
</svg>
