<?xml version="1.0" encoding="utf-8"?>
<!-- Generator: Adobe Illustrator 18.0.0, SVG Export Plug-In . SVG Version: 6.00 Build 0)  -->
<!DOCTYPE svg PUBLIC "-//W3C//DTD SVG 1.1//EN" "http://www.w3.org/Graphics/SVG/1.1/DTD/svg11.dtd">
<svg version="1.1" id="Layer_1" xmlns="http://www.w3.org/2000/svg" xmlns:xlink="http://www.w3.org/1999/xlink" x="0px" y="0px"
	 viewBox="0 0 85 85" enable-background="new 0 0 85 85" xml:space="preserve">
<polygon points="74.6,103 86.9,96 38.3,10.7 26,17.7 26,17.7 "/>
<path d="M26,95.7c4.1,2.4,8.2,4.7,12.3,7.1c6.3-11,6.3-24.5,0-35.4s-18-17.7-30.7-17.7c0,4.7,0,9.4,0,14.2c7.6,0,14.6,4.1,18.4,10.6
	C29.8,81,29.8,89.1,26,95.7z"/>
<path d="M105.8,49.6c0,4.7,0,9.4,0,14.2c-12.7,0-24.4-6.8-30.7-17.7c-6.3-11-6.3-24.5,0-35.4c4.1,2.4,8.2,4.7,12.3,7.1
	c-3.8,6.6-3.8,14.7,0,21.3C91.2,45.6,98.2,49.6,105.8,49.6z"/>
</svg>
