<?xml version="1.0" encoding="utf-8"?>
<!-- Generator: Adobe Illustrator 18.0.0, SVG Export Plug-In . SVG Version: 6.00 Build 0)  -->
<!DOCTYPE svg PUBLIC "-//W3C//DTD SVG 1.1//EN" "http://www.w3.org/Graphics/SVG/1.1/DTD/svg11.dtd">
<svg version="1.1" id="Layer_1" xmlns="http://www.w3.org/2000/svg" xmlns:xlink="http://www.w3.org/1999/xlink" x="0px" y="0px"
	 viewBox="0 0 85 85" enable-background="new 0 0 85 85" xml:space="preserve">
<path fill="#030405" d="M85,48.2c0,5.7,0,11.3,0,17c-17.3,0-33.9-6.9-46.1-19.1C26.7,33.9,19.8,17.3,19.8,0c5.7,0,11.3,0,17,0
	c0,12.8,5.1,25,14.1,34.1C60,43.1,72.3,48.2,85,48.2z"/>
<path fill="#030405" d="M0,48.2c0,5.7,0,11.3,0,17c11,0,19.8,8.9,19.8,19.8c5.7,0,11.3,0,17,0C36.9,64.7,20.4,48.2,0,48.2z"/>
</svg>
